<svg width="25" height="24" viewBox="0 0 25 24" fill="none" xmlns="http://www.w3.org/2000/svg">
<g clip-path="url(#clip0_3_747)">
<path d="M12.4701 7.05176C9.88986 7.05176 7.79114 9.15048 7.79114 11.7307C7.79114 14.3109 9.88986 16.4096 12.4701 16.4096C15.0503 16.4096 17.149 14.3109 17.149 11.7307C17.149 9.15048 15.0503 7.05176 12.4701 7.05176ZM12.4701 15.1914C10.562 15.1914 9.00934 13.6388 9.00934 11.7307C9.00934 9.82259 10.562 8.26996 12.4701 8.26996C14.3782 8.26996 15.9308 9.82259 15.9308 11.7307C15.9308 13.6388 14.3782 15.1914 12.4701 15.1914Z" fill="black" stroke="black" stroke-width="0.5"/>
<path d="M23.3344 9.6882L23.3344 9.6882C23.6322 9.7333 23.8524 9.98956 23.852 10.2908M23.3344 9.6882L23.602 10.2904M23.3344 9.6882L20.6247 9.27816C20.4837 8.83461 20.3052 8.40224 20.0914 7.98598L21.7164 5.78194L21.7164 5.7819C21.895 5.53953 21.8698 5.20301 21.6571 4.9899L21.657 4.98972L19.4506 2.78364L19.4505 2.78348C19.2376 2.571 18.9011 2.54517 18.6585 2.72399L18.6584 2.724L16.4624 4.34286C16.0434 4.12549 15.6076 3.94412 15.1599 3.80078L14.7522 1.10598L23.3344 9.6882ZM23.852 10.2908L23.602 10.2904M23.852 10.2908V10.2904H23.602M23.852 10.2908V13.4103C23.852 13.7115 23.6319 13.9674 23.3342 14.0125L23.3342 14.0125L20.6094 14.4249M23.602 10.2904V13.4103C23.602 13.5879 23.4722 13.7388 23.2968 13.7653L20.4175 14.201M20.6094 14.4249C20.6257 14.3745 20.6414 14.3241 20.6568 14.2735L20.4175 14.201M20.6094 14.4249L20.4549 14.4482L20.4175 14.201M20.6094 14.4249C20.4678 14.8623 20.2902 15.2879 20.0783 15.6972M20.4175 14.201C20.2585 14.7263 20.0462 15.235 19.7838 15.7191M19.7838 15.7191L19.985 15.5707L20.0783 15.6972M19.7838 15.7191L21.5149 18.0671M19.7838 15.7191L20.0036 15.8382C20.0289 15.7914 20.0538 15.7444 20.0783 15.6972M20.0783 15.6972L21.716 17.9186M21.5149 18.0671L21.716 17.9186M21.5149 18.0671C21.6205 18.2101 21.6054 18.4088 21.4799 18.5342M21.5149 18.0671L21.7161 17.9188L21.716 17.9186M21.716 17.9186C21.8952 18.1612 21.8695 18.4982 21.6567 18.711L21.4799 18.5342M21.4799 18.5342L21.6567 18.711L19.4504 20.9171L19.4502 20.9172C19.2373 21.1297 18.9009 21.1556 18.6582 20.9767L18.6582 20.9767L16.4284 19.3329M21.4799 18.5342L16.4284 19.3329M16.4284 19.3329C16.4755 19.3088 16.5224 19.2842 16.5691 19.2591L16.4508 19.0389L16.3025 19.2401L16.4284 19.3329ZM16.4284 19.3329C16.0219 19.5414 15.5997 19.7161 15.1664 19.8553M16.4284 19.3329L14.9426 19.663M15.1664 19.8553L15.1898 19.7004L14.9426 19.663M15.1664 19.8553C15.1159 19.8715 15.0652 19.8872 15.0145 19.9024L14.9426 19.663M15.1664 19.8553L14.7519 22.5947C14.7069 22.8926 14.451 23.1128 14.1497 23.1128H11.0298C10.7285 23.1128 10.4727 22.8926 10.4276 22.5947L10.6748 22.5574M14.9426 19.663L14.5047 22.5574C14.4782 22.7331 14.3274 22.8628 14.1497 22.8628H11.0298C10.8522 22.8628 10.7014 22.7331 10.6748 22.5574M10.6748 22.5574L10.4276 22.5947M10.6748 22.5574L10.2369 19.663C9.716 19.5067 9.21038 19.2974 8.72871 19.0389L10.4276 22.5947M10.4276 22.5947L10.0132 19.8553C9.57987 19.7161 9.15761 19.5414 8.75112 19.3329M10.4276 22.5947L8.75112 19.3329M8.75112 19.3329L6.52134 20.9767L6.52132 20.9767C6.27909 21.1553 5.94218 21.1303 5.72915 20.9171L8.75112 19.3329ZM19.7893 13.7864C19.8266 13.6492 19.9416 13.5468 20.0823 13.5255L22.884 13.1015V10.5992M19.7893 13.7864L6.19512 3.68653L8.45579 5.353C8.57094 5.43775 8.72536 5.44637 8.84937 5.37431M19.7893 13.7864C19.6208 14.4076 19.3708 15.0062 19.0464 15.5656L19.7893 13.7864ZM22.884 10.5992L20.095 10.1774C19.9535 10.1559 19.8381 10.0527 19.8015 9.91432M22.884 10.5992L22.8467 10.8464L22.634 10.8143M22.884 10.5992H22.634V10.8143M19.8015 9.91432C19.6356 9.28804 19.3859 8.68284 19.0596 8.11546M19.8015 9.91432L19.5598 9.97834M19.8015 9.91432L19.5598 9.97829C19.5598 9.97831 19.5598 9.97832 19.5598 9.97834M19.0596 8.11546C18.9885 7.99193 18.9974 7.83799 19.0819 7.72332L20.7534 5.45595M19.0596 8.11546L18.8429 8.24017M19.0596 8.11546L18.8429 8.24009C18.8429 8.24012 18.8429 8.24014 18.8429 8.24017M20.7534 5.45595L18.9839 3.68653L16.7233 5.353C16.6079 5.43775 16.4535 5.44661 16.3297 5.37431C15.7609 5.04394 15.1528 4.79089 14.5222 4.62211M20.7534 5.45595L20.5766 5.63272L20.4245 5.48068M20.7534 5.45595L20.5521 5.3076L20.4245 5.48068M14.5222 4.62211C14.3843 4.58524 14.2814 4.47009 14.2601 4.32884M14.5222 4.62211L14.4577 4.86363C15.0666 5.02662 15.6541 5.27106 16.2039 5.59033C16.4145 5.71326 16.6765 5.69757 16.8713 5.5545L16.8716 5.55424L18.9592 4.01535L20.4245 5.48068M14.5222 4.62211L14.4576 4.86361C14.2236 4.80102 14.049 4.60568 14.0129 4.36623L14.2601 4.32884M14.2601 4.32884L13.8406 1.55586M14.2601 4.32884L14.0129 4.36613L13.6256 1.80586M13.8406 1.55586H11.3384M13.8406 1.55586V1.80586H13.6256M13.8406 1.55586L13.5935 1.59324L13.6256 1.80586M11.3384 1.55586L10.919 4.32884M11.3384 1.55586L11.5856 1.59324L11.5535 1.80586M11.3384 1.55586V1.80586H11.5535M10.919 4.32884C10.8977 4.47009 10.7947 4.58524 10.6568 4.62211C10.0263 4.79089 9.41794 5.04394 8.84937 5.37431M10.919 4.32884L11.1662 4.36613M10.919 4.32884L11.1662 4.36623L11.1662 4.36613M8.84937 5.37431L8.97497 5.59047C8.97497 5.59047 8.97497 5.59047 8.97497 5.59047M8.84937 5.37431L8.97497 5.59047M4.75453 5.48068L6.21986 4.01535L8.30745 5.55424L8.3076 5.55435L4.75453 5.48068ZM4.75453 5.48068L6.29844 7.57497L6.29846 7.575C6.44172 7.76939 6.45685 8.03046 6.33614 8.24017M4.75453 5.48068L2.29503 10.5992M8.97497 5.59047C9.52452 5.27115 10.1123 5.02666 10.7214 4.86363L8.97497 5.59047ZM6.33614 8.24017L6.11947 8.11546M6.33614 8.24017C6.33614 8.24017 6.33615 8.24016 6.33615 8.24016L6.11947 8.11546M6.33614 8.24017C6.02047 8.78866 5.77946 9.37348 5.61923 9.97834C5.55708 10.213 5.36137 10.3885 5.12129 10.4246M6.11947 8.11546C6.19057 7.99193 6.18171 7.83799 6.09721 7.72332L6.11947 8.11546ZM5.12129 10.4246L5.08406 10.1774L5.12144 10.4246L5.12129 10.4246ZM5.12129 10.4246L2.54503 10.8143M2.54503 10.8143V10.5992H2.29503M2.54503 10.8143V12.8865M2.54503 10.8143L2.33242 10.8464L2.29503 10.5992M2.29503 10.5992L2.54503 12.8865M2.54503 12.8865L5.13416 13.2783C5.37269 13.3144 5.56766 13.4877 5.63102 13.7208L5.63105 13.7209C5.79387 14.3211 6.03537 14.8997 6.34887 15.4402C6.47076 15.6502 6.456 15.9121 6.31244 16.1072L6.31232 16.1073L4.75453 18.2203L6.21985 19.6856L8.33976 18.1228L8.34007 18.1226C8.53425 17.9799 8.79506 17.9646 9.00453 18.085C9.54402 18.3949 10.1193 18.6331 10.7151 18.7929L10.7155 18.7929C10.9488 18.8558 11.1233 19.0509 11.1595 19.2902L11.5535 21.8951H13.6256L14.0196 19.2903C14.0196 19.2903 14.0196 19.2902 14.0196 19.2902C14.0558 19.0505 14.2305 18.8558 14.4636 18.7929L14.4639 18.7929C15.0597 18.6331 15.6351 18.3949 16.1745 18.085C16.3842 17.9642 16.6448 17.9798 16.8391 18.1226L16.8393 18.1228L18.9592 19.6856L20.4245 18.2203L18.8668 16.1074C18.7226 15.912 18.7085 15.6499 18.8302 15.4402C19.1437 14.8994 19.3852 14.3211 19.548 13.7209L19.5481 13.7207C19.6114 13.4881 19.8062 13.3144 20.0449 13.2783L22.634 12.8865V10.8143M2.54503 12.8865L11.1662 4.36613M22.634 10.8143L20.0576 10.4246L20.0574 10.4246C19.8179 10.3881 19.6221 10.2133 19.5598 9.97834M19.5598 9.97834C19.3996 9.37356 19.1584 8.78873 18.8429 8.24017M18.8429 8.24017C18.7222 8.03046 18.7374 7.7694 18.8806 7.575L18.8806 7.57497L20.4245 5.48068M13.6256 1.80586H11.5535M11.5535 1.80586L11.1662 4.36613M3.52306 18.711L5.72898 20.9169L14.15 0.837891H11.0301C10.8524 0.837891 10.7016 0.967646 10.675 1.14337L10.4279 1.10597L10.4279 1.10599L10.0201 3.80079C9.57241 3.94417 9.13657 4.12569 8.71768 4.34289L6.52158 2.724L6.52156 2.72399C6.27916 2.54533 5.94251 2.57052 5.72939 2.78365L3.5233 4.98973C3.31052 5.20252 3.2849 5.53938 3.46364 5.7819L3.46367 5.78194L5.08868 7.98598C4.8748 8.40224 4.69631 8.83461 4.55537 9.27816L1.84564 9.6882C1.54773 9.73325 1.32755 9.98909 1.32755 10.2904V13.4103C1.32755 13.7115 1.54763 13.9674 1.84535 14.0125L1.84538 14.0125L4.57024 14.4249C4.71192 14.8623 4.88957 15.2879 5.10131 15.6972L3.46342 17.9188L3.4634 17.9188C3.28458 18.1614 3.31041 18.4979 3.52289 18.7108L3.52306 18.711Z" fill="black" stroke="black" stroke-width="0.5"/>
</g>
<defs>
<clipPath id="clip0_3_747">
<rect width="24" height="24" fill="white" transform="translate(0.5)"/>
</clipPath>
</defs>
</svg>
